<?xml version="1.0" standalone="no"?>
<!DOCTYPE svg PUBLIC "-//W3C//DTD SVG 20010904//EN"
 "http://www.w3.org/TR/2001/REC-SVG-20010904/DTD/svg10.dtd">
<svg version="1.0" xmlns="http://www.w3.org/2000/svg"
 width="512.000000pt" height="512.000000pt" viewBox="0 0 512.000000 512.000000"
 preserveAspectRatio="xMidYMid meet">

<g transform="translate(0.000000,512.000000) scale(0.100000,-0.100000)"
fill="#000000" stroke="none">
<path d="M1330 5104 c-198 -42 -369 -199 -438 -399 l-27 -80 0 -2065 0 -2065
27 -80 c102 -300 412 -472 710 -396 117 30 193 73 279 160 76 75 128 159 160
256 10 30 14 172 19 581 l5 542 565 -671 c311 -368 589 -694 618 -723 94 -92
232 -152 372 -161 273 -17 516 149 606 412 54 159 29 367 -59 501 -19 29 -337
410 -706 848 l-672 796 686 812 c723 858 733 871 766 1008 8 30 13 98 13 150
-3 376 -349 652 -719 575 -100 -21 -219 -83 -285 -148 -30 -29 -309 -356 -620
-724 l-565 -671 -5 542 c-6 588 -4 565 -67 691 -45 88 -162 207 -250 253 -126
66 -274 86 -413 56z m257 -313 c63 -31 111 -78 141 -135 l27 -51 5 -750 5
-750 23 -36 c38 -62 115 -85 185 -55 24 10 225 241 755 870 398 470 739 867
760 881 155 105 360 49 442 -120 33 -69 33 -180 1 -246 -12 -26 -338 -421
-747 -905 -538 -638 -727 -869 -735 -896 -7 -26 -7 -50 0 -75 8 -28 197 -259
735 -897 409 -484 735 -879 747 -905 32 -66 32 -177 -1 -246 -31 -62 -89 -121
-149 -148 -35 -17 -65 -22 -126 -21 -81 0 -112 10 -178 56 -15 11 -329 377
-698 815 -369 437 -685 803 -703 814 -24 16 -43 19 -86 16 -53 -4 -56 -6 -123
-78 -112 -121 -101 -44 -107 -774 l-5 -640 -27 -51 c-54 -103 -148 -159 -268
-159 -123 0 -215 58 -270 170 l-25 50 0 2030 c0 2211 -4 2051 56 2141 32 47
91 90 151 110 60 19 162 13 215 -15z"/>
</g>
</svg>
